<svg width="1004" height="806" viewBox="0 0 1004 806" fill="none" xmlns="http://www.w3.org/2000/svg">
<path d="M951 111C951 108.239 953.239 106 956 106H999C1001.76 106 1004 108.239 1004 111V224C1004 226.761 1001.76 229 999 229H956C953.239 229 951 226.761 951 224V111Z" fill="#060606"/>
<path d="M888 122C888 119.239 890.239 117 893 117H936C938.761 117 941 119.239 941 122V370C941 372.761 938.761 375 936 375H893C890.239 375 888 372.761 888 370V122Z" fill="#060606"/>
<path d="M825 65C825 62.2386 827.239 60 830 60H873C875.761 60 878 62.2386 878 65V526C878 528.761 875.761 531 873 531H830C827.239 531 825 528.761 825 526V65Z" fill="#060606"/>
<path d="M762 22C762 19.2386 764.239 17 767 17H810C812.761 17 815 19.2386 815 22V608C815 610.761 812.761 613 810 613H767C764.239 613 762 610.761 762 608V22Z" fill="#060606"/>
<path d="M699 5C699 2.23857 701.239 0 704 0H747C749.761 0 752 2.23858 752 5V661C752 663.761 749.761 666 747 666H704C701.239 666 699 663.761 699 661V5Z" fill="#060606"/>
<path d="M636 5.00002C636 2.2386 638.239 0 641 0H684C686.761 0 689 2.23858 689 5V707C689 709.761 686.761 712 684 712H641C638.239 712 636 709.761 636 707V5.00002Z" fill="#060606"/>
<path d="M573 22C573 19.2386 575.239 17 578 17H621C623.761 17 626 19.2386 626 22V740C626 742.761 623.761 745 621 745H578C575.239 745 573 742.761 573 740V22Z" fill="#060606"/>
<path d="M510 65C510 62.2386 512.239 60 515 60H558C560.761 60 563 62.2386 563 65V767C563 769.761 560.761 772 558 772H515C512.239 772 510 769.761 510 767V65Z" fill="#060606"/>
<path d="M447 142C447 139.239 449.239 137 452 137H495C497.761 137 500 139.239 500 142V783C500 785.761 497.761 788 495 788H452C449.239 788 447 785.761 447 783V142Z" fill="#060606"/>
<path d="M384 234C384 231.239 386.239 229 389 229H432C434.761 229 437 231.239 437 234V801C437 803.761 434.761 806 432 806H389C386.239 806 384 803.761 384 801V234Z" fill="#060606"/>
<path d="M321 217C321 214.239 323.239 212 326 212H369C371.761 212 374 214.239 374 217V801C374 803.761 371.761 806 369 806H326C323.239 806 321 803.761 321 801V217Z" fill="#060606"/>
<path d="M258 193C258 190.239 260.239 188 263 188H306C308.761 188 311 190.239 311 193V801C311 803.761 308.761 806 306 806H263C260.239 806 258 803.761 258 801V193Z" fill="#060606"/>
<path d="M132 704C132 701.239 134.239 699 137 699H180C182.761 699 185 701.239 185 704V783C185 785.761 182.761 788 180 788H137C134.239 788 132 785.761 132 783V704Z" fill="#060606"/>
<path d="M69 717C69 714.239 71.2386 712 74 712H117C119.761 712 122 714.239 122 717V750C122 752.761 119.761 755 117 755H74C71.2386 755 69 752.761 69 750V717Z" fill="#060606"/>
<path d="M6 706C6 703.239 8.23858 701 11 701H54C56.7614 701 59 703.239 59 706V717C59 719.761 56.7614 722 54 722H11C8.23858 722 6 719.761 6 717V706Z" fill="#060606"/>
<path d="M195 142C195 139.239 197.239 137 200 137H243C245.761 137 248 139.239 248 142V560C248 562.761 245.761 565 243 565H200C197.239 565 195 562.761 195 560V142Z" fill="#060606"/>
<path d="M132 96C132 93.2386 134.239 91 137 91H180C182.761 91 185 93.2386 185 96V466C185 468.761 182.761 471 180 471H137C134.239 471 132 468.761 132 466V96Z" fill="#060606"/>
<path d="M63 5C63 2.23858 65.2386 0 68 0H111C113.761 0 116 2.23858 116 5V351C116 353.761 113.761 356 111 356H68C65.2386 356 63 353.761 63 351V5Z" fill="#060606"/>
<path d="M0 65C0 62.2386 2.23858 60 5 60H48C50.7614 60 53 62.2386 53 65V224C53 226.761 50.7614 229 48 229H5C2.23858 229 0 226.761 0 224V65Z" fill="#060606"/>
<path d="M195 681C195 678.239 197.239 676 200 676H243C245.761 676 248 678.239 248 681V790C248 792.761 245.761 795 243 795H200C197.239 795 195 792.761 195 790V681Z" fill="#060606"/>
</svg>
