<svg width="50px" height="50px" viewBox="0 0 786 644" fill="none" xmlns="http://www.w3.org/2000/svg">
<rect x="734" y="99" width="52" height="120" rx="15" fill="black"/>
<rect x="595" y="23" width="117" height="453" rx="15" fill="black"/>
<rect x="420" width="153" height="601" rx="15" fill="black"/>
<path d="M257 174C257 165.716 263.716 159 272 159H385C393.284 159 400 165.716 400 174V629C400 637.284 393.284 644 385 644H272C263.716 644 257 637.284 257 629V174Z" fill="black"/>
<path d="M257 174C257 165.716 263.716 159 272 159H385C393.284 159 400 165.716 400 174V629C400 637.284 393.284 644 385 644H272C263.716 644 257 637.284 257 629V174Z" fill="black"/>
<path d="M135 146C135 137.716 141.716 131 150 131H222C230.284 131 237 137.716 237 146V436C237 444.284 230.284 451 222 451H150C141.716 451 135 444.284 135 436V146Z" fill="black"/>
<path d="M135 146C135 137.716 141.716 131 150 131H222C230.284 131 237 137.716 237 146V436C237 444.284 230.284 451 222 451H150C141.716 451 135 444.284 135 436V146Z" fill="black"/>
<path d="M59 91C59 82.7157 65.7157 76 74 76H109C117.284 76 124 82.7157 124 91V228C124 236.284 117.284 243 109 243H74C65.7157 243 59 236.284 59 228V91Z" fill="black"/>
<path d="M59 91C59 82.7157 65.7157 76 74 76H109C117.284 76 124 82.7157 124 91V228C124 236.284 117.284 243 109 243H74C65.7157 243 59 236.284 59 228V91Z" fill="black"/>
<path d="M0 56C0 50.4772 4.47715 46 10 46H39C44.5228 46 49 50.4772 49 56V164C49 169.523 44.5228 174 39 174H10C4.47715 174 0 169.523 0 164V56Z" fill="black"/>
<path d="M0 56C0 50.4772 4.47715 46 10 46H39C44.5228 46 49 50.4772 49 56V164C49 169.523 44.5228 174 39 174H10C4.47715 174 0 169.523 0 164V56Z" fill="black"/>
<path d="M328 91C328 82.7157 334.716 76 343 76H385C393.284 76 400 82.7157 400 91V130C400 138.284 393.284 145 385 145H343C334.716 145 328 138.284 328 130V91Z" fill="black"/>
<path d="M328 91C328 82.7157 334.716 76 343 76H385C393.284 76 400 82.7157 400 91V130C400 138.284 393.284 145 385 145H343C334.716 145 328 138.284 328 130V91Z" fill="black"/>
<rect x="153" y="538" width="84" height="106" rx="15" fill="black"/>
<rect x="49" y="553" width="84" height="67" rx="15" fill="black"/>
</svg>
